<svg width="24" height="24" viewBox="0 0 24 24" fill="currentColor" xmlns="http://www.w3.org/2000/svg">
<circle cx="12" cy="12" r="11.6" fill="#F2F3F4" stroke="#E4E7EA" stroke-width="0.8"/>
<path fill-rule="evenodd" clip-rule="evenodd" d="M13.9091 9.27273C13.9091 9.95607 13.6968 10.5071 13.3804 10.8706C13.0777 11.2182 12.6308 11.4545 12 11.4545C11.3692 11.4545 10.9223 11.2182 10.6196 10.8706C10.3032 10.5071 10.0909 9.95607 10.0909 9.27273C10.0909 8.58939 10.3032 8.0384 10.6196 7.67489C10.9223 7.32721 11.3692 7.09091 12 7.09091C12.6308 7.09091 13.0777 7.32721 13.3804 7.67489C13.6968 8.0384 13.9091 8.58939 13.9091 9.27273ZM15 9.27273C15 11.0802 13.875 12.5455 12 12.5455C10.125 12.5455 9 11.0802 9 9.27273C9 7.46525 10.125 6 12 6C13.875 6 15 7.46525 15 9.27273ZM7.09091 15.8179C7.09091 15.2154 7.57933 14.727 8.18182 14.727H15.8182C16.4207 14.727 16.9091 15.2154 16.9091 15.8179V16.9088H7.09091V15.8179ZM6 15.8179C6 14.6129 6.97683 13.6361 8.18182 13.6361H15.8182C17.0232 13.6361 18 14.6129 18 15.8179V17.4542C18 17.7555 17.7558 17.9997 17.4545 17.9997H6.54545C6.24421 17.9997 6 17.7555 6 17.4542V15.8179Z" fill="#6D7883"/>
</svg>
