<svg width="20" height="20" viewBox="0 0 20 20" fill="none" xmlns="http://www.w3.org/2000/svg">
<path fill-rule="evenodd" clip-rule="evenodd" d="M10 20C15.5228 20 20 15.5228 20 10C20 4.47715 15.5228 0 10 0C4.47715 0 0 4.47715 0 10C0 15.5228 4.47715 20 10 20ZM15.248 7.84989C15.567 7.46213 15.5112 6.88923 15.1234 6.57029C14.7356 6.25135 14.1627 6.30715 13.8438 6.69491L9.54226 11.9247C9.36173 12.1442 9.0348 12.1692 8.8229 11.9799L6.0608 9.51124C5.68645 9.17666 5.11175 9.20891 4.77717 9.58326C4.4426 9.95761 4.47484 10.5323 4.84919 10.8669L8.63532 14.2507C9.05911 14.6295 9.71297 14.5793 10.074 14.1404L15.248 7.84989Z" fill="#008B6E"/>
</svg>
